<?xml version="1.0" encoding="UTF-8"?>
<svg width="788" height="788" viewBox="0 0 788 788" fill="none" xmlns="http://www.w3.org/2000/svg">
  <rect x="0" y="0" width="788" height="788" fill="#0b1428" />
  <g>
    <path d="M32.00,756.00 L756.08,756.00 L756.08,31.92 L32.00,31.92 Z" fill="#151d2f" stroke="#1e2a3f" stroke-width="2" stroke-linejoin="round" />
    
      <g>
        <rect
          x="32.00"
          y="484.47"
          width="724.08"
          height="271.53"
          fill="#4cf889"
          fill-opacity="0.22"
          stroke="#4cf889"
          stroke-opacity="0.5"
          stroke-width="1.5"
        />
        <text x="394.04" y="620.24" text-anchor="middle" dominant-baseline="middle" font-family="'Inter', 'Segoe UI', sans-serif" font-size="12" fill="#d8deff">Living Room</text>
      </g>
    

      <g>
        <rect
          x="348.78"
          y="212.94"
          width="407.29"
          height="271.53"
          fill="#58c4ff"
          fill-opacity="0.22"
          stroke="#58c4ff"
          stroke-opacity="0.5"
          stroke-width="1.5"
        />
        <text x="552.43" y="348.71" text-anchor="middle" dominant-baseline="middle" font-family="'Inter', 'Segoe UI', sans-serif" font-size="12" fill="#d8deff">Studio</text>
      </g>
    

      <g>
        <rect
          x="32.00"
          y="212.94"
          width="316.78"
          height="271.53"
          fill="#ffb347"
          fill-opacity="0.22"
          stroke="#ffb347"
          stroke-opacity="0.5"
          stroke-width="1.5"
        />
        <text x="190.39" y="348.71" text-anchor="middle" dominant-baseline="middle" font-family="'Inter', 'Segoe UI', sans-serif" font-size="12" fill="#d8deff">Kitchen</text>
      </g>
    

      <g>
        <rect
          x="32.00"
          y="31.92"
          width="724.08"
          height="181.02"
          fill="#274f37"
          fill-opacity="0.22"
          stroke="#274f37"
          stroke-opacity="0.5"
          stroke-width="1.5"
        />
        <text x="394.04" y="122.43" text-anchor="middle" dominant-baseline="middle" font-family="'Inter', 'Segoe UI', sans-serif" font-size="12" fill="#d8deff">Backyard</text>
      </g>
    
    <line x1="32.00" y1="484.47" x2="145.14" y2="484.47" stroke="#91a3d6" stroke-width="8.00" stroke-linecap="round" />
<line x1="235.65" y1="484.47" x2="348.78" y2="484.47" stroke="#91a3d6" stroke-width="8.00" stroke-linecap="round" />
<line x1="348.78" y1="484.47" x2="518.49" y2="484.47" stroke="#91a3d6" stroke-width="8.00" stroke-linecap="round" />
<line x1="609.00" y1="484.47" x2="756.08" y2="484.47" stroke="#91a3d6" stroke-width="8.00" stroke-linecap="round" />
<line x1="32.00" y1="755.99" x2="756.08" y2="755.99" stroke="#c5d1ff" stroke-width="8.00" stroke-linecap="round" />
<line x1="32.00" y1="212.94" x2="145.14" y2="212.94" stroke="#91a3d6" stroke-width="8.00" stroke-linecap="round" />
<line x1="235.65" y1="212.94" x2="348.78" y2="212.94" stroke="#91a3d6" stroke-width="8.00" stroke-linecap="round" />
<line x1="348.78" y1="212.94" x2="518.49" y2="212.94" stroke="#91a3d6" stroke-width="8.00" stroke-linecap="round" />
<line x1="609.00" y1="212.94" x2="756.08" y2="212.94" stroke="#91a3d6" stroke-width="8.00" stroke-linecap="round" />
<line x1="32.00" y1="31.93" x2="756.08" y2="31.93" stroke="#c5d1ff" stroke-width="8.00" stroke-linecap="round" />
<line x1="756.07" y1="756.00" x2="756.07" y2="484.47" stroke="#c5d1ff" stroke-width="8.00" stroke-linecap="round" />
<line x1="756.07" y1="484.47" x2="756.07" y2="212.94" stroke="#c5d1ff" stroke-width="8.00" stroke-linecap="round" />
<line x1="756.07" y1="212.94" x2="756.07" y2="31.92" stroke="#c5d1ff" stroke-width="8.00" stroke-linecap="round" />
<line x1="32.01" y1="756.00" x2="32.01" y2="484.47" stroke="#c5d1ff" stroke-width="8.00" stroke-linecap="round" />
<line x1="32.01" y1="484.47" x2="32.01" y2="212.94" stroke="#c5d1ff" stroke-width="8.00" stroke-linecap="round" />
<line x1="32.01" y1="212.94" x2="32.01" y2="31.92" stroke="#c5d1ff" stroke-width="8.00" stroke-linecap="round" />
<line x1="348.79" y1="484.47" x2="348.79" y2="393.96" stroke="#91a3d6" stroke-width="8.00" stroke-linecap="round" />
<line x1="348.79" y1="303.45" x2="348.79" y2="212.94" stroke="#91a3d6" stroke-width="8.00" stroke-linecap="round" />
  </g>
</svg>
