<?xml version="1.0" encoding="UTF-8"?>
<svg width="1088" height="1088" viewBox="0 0 1088 1088" fill="none" xmlns="http://www.w3.org/2000/svg">
  <rect x="0" y="0" width="1088" height="1088" fill="#0b1428" />
  <g>
    <path d="M32.00,1056.00 L1056.00,1056.00 L1056.00,32.00 L32.00,32.00 Z" fill="#151d2f" stroke="#1e2a3f" stroke-width="2" stroke-linejoin="round" />
    
      <g>
        <rect
          x="32.00"
          y="672.00"
          width="1024.00"
          height="384.00"
          fill="#4cf889"
          fill-opacity="0.22"
          stroke="#4cf889"
          stroke-opacity="0.5"
          stroke-width="1.5"
        />
        <text x="544.00" y="864.00" text-anchor="middle" dominant-baseline="middle" font-family="'Inter', 'Segoe UI', sans-serif" font-size="12" fill="#d8deff">Living Room</text>
      </g>
    

      <g>
        <rect
          x="480.00"
          y="288.00"
          width="576.00"
          height="384.00"
          fill="#58c4ff"
          fill-opacity="0.22"
          stroke="#58c4ff"
          stroke-opacity="0.5"
          stroke-width="1.5"
        />
        <text x="768.00" y="480.00" text-anchor="middle" dominant-baseline="middle" font-family="'Inter', 'Segoe UI', sans-serif" font-size="12" fill="#d8deff">Studio</text>
      </g>
    

      <g>
        <rect
          x="32.00"
          y="288.00"
          width="448.00"
          height="384.00"
          fill="#ffb347"
          fill-opacity="0.22"
          stroke="#ffb347"
          stroke-opacity="0.5"
          stroke-width="1.5"
        />
        <text x="256.00" y="480.00" text-anchor="middle" dominant-baseline="middle" font-family="'Inter', 'Segoe UI', sans-serif" font-size="12" fill="#d8deff">Kitchen</text>
      </g>
    

      <g>
        <rect
          x="32.00"
          y="32.00"
          width="1024.00"
          height="256.00"
          fill="#274f37"
          fill-opacity="0.22"
          stroke="#274f37"
          stroke-opacity="0.5"
          stroke-width="1.5"
        />
        <text x="544.00" y="160.00" text-anchor="middle" dominant-baseline="middle" font-family="'Inter', 'Segoe UI', sans-serif" font-size="12" fill="#d8deff">Backyard</text>
      </g>
    
    <line x1="32.00" y1="672.00" x2="192.00" y2="672.00" stroke="#91a3d6" stroke-width="8.00" stroke-linecap="round" />
<line x1="320.00" y1="672.00" x2="480.00" y2="672.00" stroke="#91a3d6" stroke-width="8.00" stroke-linecap="round" />
<line x1="480.00" y1="672.00" x2="720.00" y2="672.00" stroke="#91a3d6" stroke-width="8.00" stroke-linecap="round" />
<line x1="848.00" y1="672.00" x2="1056.00" y2="672.00" stroke="#91a3d6" stroke-width="8.00" stroke-linecap="round" />
<line x1="32.00" y1="1056.00" x2="1056.00" y2="1056.00" stroke="#c5d1ff" stroke-width="8.00" stroke-linecap="round" />
<line x1="32.00" y1="288.00" x2="192.00" y2="288.00" stroke="#91a3d6" stroke-width="8.00" stroke-linecap="round" />
<line x1="320.00" y1="288.00" x2="480.00" y2="288.00" stroke="#91a3d6" stroke-width="8.00" stroke-linecap="round" />
<line x1="480.00" y1="288.00" x2="720.00" y2="288.00" stroke="#91a3d6" stroke-width="8.00" stroke-linecap="round" />
<line x1="848.00" y1="288.00" x2="1056.00" y2="288.00" stroke="#91a3d6" stroke-width="8.00" stroke-linecap="round" />
<line x1="32.00" y1="32.00" x2="1056.00" y2="32.00" stroke="#c5d1ff" stroke-width="8.00" stroke-linecap="round" />
<line x1="1056.00" y1="1056.00" x2="1056.00" y2="672.00" stroke="#c5d1ff" stroke-width="8.00" stroke-linecap="round" />
<line x1="1056.00" y1="672.00" x2="1056.00" y2="288.00" stroke="#c5d1ff" stroke-width="8.00" stroke-linecap="round" />
<line x1="1056.00" y1="288.00" x2="1056.00" y2="32.00" stroke="#c5d1ff" stroke-width="8.00" stroke-linecap="round" />
<line x1="32.00" y1="1056.00" x2="32.00" y2="672.00" stroke="#c5d1ff" stroke-width="8.00" stroke-linecap="round" />
<line x1="32.00" y1="672.00" x2="32.00" y2="288.00" stroke="#c5d1ff" stroke-width="8.00" stroke-linecap="round" />
<line x1="32.00" y1="288.00" x2="32.00" y2="32.00" stroke="#c5d1ff" stroke-width="8.00" stroke-linecap="round" />
<line x1="480.00" y1="672.00" x2="480.00" y2="544.00" stroke="#91a3d6" stroke-width="8.00" stroke-linecap="round" />
<line x1="480.00" y1="416.00" x2="480.00" y2="288.00" stroke="#91a3d6" stroke-width="8.00" stroke-linecap="round" />
  </g>
</svg>
